Coordinates
version=1
nRows=30
nColumns=19
inDegrees=yes

Units are S.I. units (second, meters, Newtons, ...)
If the header above contains a line with 'inDegrees', this indicates whether rotational values are in degrees (yes) or radians (no).

endheader
time	pelvis_obliquity	pelvis_rotation	pelvis_tilt	pelvis_to_ground_tx	pelvis_to_ground_ty	pelvis_to_ground_tz	left_hip_abduction	left_hip_rotation	left_hip_flexion	left_knee_flexion	left_ankle_flexion	left_subtalar_angle	right_hip_abduction	right_hip_rotation	right_hip_flexion	right_knee_flexion	right_ankle_flexion	right_subtalar_angle
      3.07000000	     84.67099766	      6.40285876	    -10.80748097	     -0.82997323	     -0.63005907	      0.60371355	      0.81278363	     -4.51924901	     48.66453454	    -41.31811346	    -15.91070496	    -14.70933927	      5.93855291	     17.86189100	     10.62304504	      2.68961835	     -8.28755653	    -12.21292355
      3.08000000	     84.26266254	      5.67725476	    -10.61508860	     -0.82157412	     -0.62985616	      0.60283168	      1.71669379	     -4.82233572	     49.13014411	    -39.61181405	    -16.05253338	    -14.74872440	      6.58100120	     18.22487229	      9.49479505	      2.91611954	     -8.28999750	    -12.13675353
      3.09000000	     83.82128882	      4.89442090	    -10.30242617	     -0.81290535	     -0.62968798	      0.60185936	      2.69548852	     -5.06093597	     49.18246084	    -37.67090636	    -16.34822380	    -14.87182132	      7.28460431	     18.68584066	      8.24928612	      3.04050368	     -8.34910835	    -12.06718361
      3.10000000	     83.37005561	      4.16523166	    -10.05128895	     -0.80396927	     -0.62954377	      0.60079646	      3.79670008	     -5.48146156	     49.00740532	    -35.54391767	    -16.69839623	    -15.02903133	      7.98259816	     19.07083597	      7.08628003	      3.08274191	     -8.41108003	    -11.99409088
      3.11000000	     82.90654664	      3.45280551	     -9.79606928	     -0.79473986	     -0.62943408	      0.59964179	      4.97280329	     -6.00768831	     48.54536823	    -33.31043304	    -17.11978385	    -15.24331623	      8.69023466	     19.42221158	      5.93638843	      3.03902097	     -8.48484195	    -11.89434034
      3.12000000	     82.44739444	      2.78644429	     -9.61069005	     -0.78524775	     -0.62935416	      0.59841164	      6.20020035	     -6.67188967	     47.89899684	    -31.04095907	    -17.93044098	    -15.90409815	      9.36414527	     19.76500700	      4.91761542	      2.85038827	     -8.72270252	    -11.80373584
      3.13000000	     82.03014223	      2.14675789	     -9.34955109	     -0.77542009	     -0.62931578	      0.59710477	      7.31556448	     -7.32870302	     46.94479818	    -28.82050300	    -18.19463238	    -16.06022817	     10.01320939	     20.01042565	      3.87052014	      2.51453000	     -8.75279519	    -11.65070198
      3.14000000	     81.64821409	      1.57294112	     -9.11484411	     -0.76533275	     -0.62930957	      0.59573046	      8.35143280	     -8.06136568	     45.84367072	    -26.75061054	    -18.58843696	    -16.38289129	     10.61235171	     20.21069425	      2.92214631	      2.03501295	     -8.89547143	    -11.43035167
      3.15000000	     81.34803645	      1.07778659	     -8.95065816	     -0.75501778	     -0.62932525	      0.59432016	      9.23825684	     -8.85080756	     44.67353852	    -24.87649730	    -18.89624483	    -16.72096488	     11.09320189	     20.34660925	      2.15087306	      1.37988349	     -9.08419450	    -11.20303479
      3.16000000	     81.24957388	      0.59761445	     -8.97077568	     -0.74450624	     -0.62927336	      0.59295733	      9.82340951	     -9.59593254	     43.53942346	    -23.17586272	    -18.96977336	    -16.86192035	     11.27379157	     20.54594708	      1.68968192	      0.54046936	     -9.23740035	    -11.05164505
      3.17000000	     81.18502709	      0.30598023	     -8.79088274	     -0.73382253	     -0.62933151	      0.59154107	     10.19539363	    -10.31349853	     42.21180359	    -21.85076962	    -19.28130342	    -17.63185344	     11.50721346	     20.43652986	      1.14987760	     -0.48688671	     -9.76427990	    -10.56133785
      3.18000000	     81.32012501	      0.13314013	     -8.84706590	     -0.72309479	     -0.62933107	      0.59021724	     10.34491277	    -11.11579185	     41.06459994	    -20.72496008	    -19.20253135	    -17.79627251	     11.46044378	     20.41643239	      0.99858436	     -1.67536809	    -10.07699113	    -10.40595797
      3.19000000	     81.67016962	      0.06452079	     -8.93746402	     -0.71230491	     -0.62929070	      0.58900088	     10.14800211	    -11.80879149	     39.92311607	    -19.80846606	    -19.00007735	    -17.95249158	     11.17045932	     20.26022807	      1.04855944	     -3.06871151	    -10.57311520	    -10.17764622
      3.20000000	     82.21782293	      0.13301858	     -9.10618634	     -0.70154803	     -0.62919634	      0.58791653	      9.68994202	    -12.46385113	     38.85890870	    -19.06416162	    -18.68079426	    -18.03590876	     10.65312815	     19.99081005	      1.35858438	     -4.66635853	    -11.19504739	     -9.92269261
      3.21000000	     82.96606816	      0.34348803	     -9.34926583	     -0.69087427	     -0.62903968	      0.58700415	      9.00545193	    -13.10370617	     37.86076404	    -18.40805560	    -18.26669325	    -17.99466230	      9.91447602	     19.60166977	      1.91937661	     -6.45714567	    -11.91241098	     -9.66681389
      3.22000000	     83.90179205	      0.69738762	     -9.66234114	     -0.68033505	     -0.62881473	      0.58628949	      8.13960388	    -13.74776668	     36.91868492	    -17.76784692	    -17.78751201	    -17.80219431	      8.97127112	     19.05883740	      2.72653102	     -8.44314650	    -12.70476203	     -9.41702780
      3.23000000	     85.00475993	      1.18106593	    -10.03502335	     -0.66997824	     -0.62849305	      0.58579268	      7.13507027	    -14.41805101	     36.00954506	    -17.07989620	    -17.28496079	    -17.46340430	      7.84360944	     18.34336080	      3.76244484	    -10.62108677	    -13.54021248	     -9.19398669
      3.24000000	     86.23297599	      1.75258006	    -10.48530184	     -0.65982277	     -0.62807247	      0.58552907	      6.01090732	    -14.99761044	     35.14287395	    -16.29976603	    -16.51001057	    -16.59200206	      6.57008636	     17.48790042	      5.02026953	    -12.96378092	    -14.56788485	     -8.51452833
      3.25000000	     87.56352447	      2.43012433	    -10.99577894	     -0.64992754	     -0.62755086	      0.58549351	      4.86009147	    -15.67690946	     34.28108037	    -15.36979497	    -16.03164810	    -15.91870870	      5.17735332	     16.43510760	      6.48870567	    -15.48806481	    -15.35144810	     -8.33919346
      3.26000000	     88.92842087	      3.17852769	    -11.49822501	     -0.64027911	     -0.62692316	      0.58567607	      3.69766784	    -16.37539383	     33.33976201	    -14.27264386	    -15.58621120	    -15.13215152	      3.75434527	     15.19692472	      8.05663964	    -18.14334284	    -16.11302514	     -8.11033325
      3.27000000	     90.27680771	      3.97662554	    -11.92569988	     -0.63088975	     -0.62619161	      0.58603587	      2.53538266	    -17.06599130	     32.26237991	    -13.05052309	    -15.31009251	    -14.68234858	      2.36040472	     13.78567654	      9.64249198	    -20.91184015	    -16.64906182	     -8.25375377
      3.28000000	     91.57740950	      4.74881380	    -12.53036548	     -0.62178946	     -0.62533917	      0.58664142	      1.49570719	    -17.78715838	     31.27733955	    -11.61626029	    -15.02601379	    -13.80450203	      0.97037090	     12.43976318	     11.47782794	    -23.69921096	    -17.22786215	     -7.98838958
      3.29000000	     92.74846420	      5.51376495	    -12.96958605	     -0.61292729	     -0.62440323	      0.58733812	      0.44214674	    -18.27551317	     30.12354609	    -10.19573094	    -14.81067293	    -12.92459109	     -0.27983714	     10.94806300	     13.22812457	    -26.54716384	    -17.51707182	     -7.88511675
      3.30000000	     93.77544575	      6.26806489	    -13.36293968	     -0.60431345	     -0.62339671	      0.58816885	     -0.47469778	    -18.81603259	     28.89028400	     -8.70807979	    -14.65597027	    -12.58306687	     -1.38481153	      9.49067130	     14.98148738	    -29.34964218	    -17.67841091	     -8.15193267
      3.31000000	     94.63770535	      6.97128624	    -13.75873503	     -0.59592453	     -0.62233967	      0.58912740	     -1.26994434	    -19.25995904	     27.65024338	     -7.18127034	    -14.59469041	    -12.22643653	     -2.34894141	      8.09326394	     16.79227476	    -32.06108106	    -17.68160012	     -8.41356777
      3.32000000	     95.33322354	      7.61416338	    -14.10825951	     -0.58776194	     -0.62124839	      0.59016594	     -1.92489907	    -19.73042312	     26.37255717	     -5.66635191	    -14.81237273	    -11.75007016	     -3.15664605	      6.84389317	     18.61721585	    -34.67362807	    -17.13814172	     -8.73755462
      3.33000000	     95.83866138	      8.22711622	    -14.39183016	     -0.57979062	     -0.62016599	      0.59123601	     -2.45319449	    -20.10164468	     25.10834998	     -4.27579864	    -14.85674177	    -11.55127462	     -3.78469344	      5.63189525	     20.43709564	    -37.15105405	    -16.71140465	     -9.15850160
      3.34000000	     96.16922449	      8.85340634	    -14.61143986	     -0.57200030	     -0.61912933	      0.59229508	     -2.85106980	    -20.41387073	     23.90127778	     -3.07757146	    -14.94987892	    -11.41269328	     -4.23507927	      4.38529610	     22.25164336	    -39.47998233	    -16.13554376	     -9.65856436
      3.35000000	     96.36019810	      9.42532112	    -14.78368092	     -0.56435989	     -0.61812973	      0.59334025	     -3.14082506	    -20.66187103	     22.73702508	     -2.01701743	    -15.12243355	    -11.34198743	     -4.55684733	      3.26575341	     24.07797423	    -41.63967143	    -15.29290026	    -10.25152731
      3.36000000	     96.43354415	      9.97449462	    -14.91099942	     -0.55685086	     -0.61719452	      0.59433672	     -3.33447979	    -20.84140346	     21.64316191	     -1.12855620	    -15.32346512	    -11.33759791	     -4.76205105	      2.20521432	     25.91239197	    -43.62452242	    -14.30769998	    -10.86155750
